<?xml version="1.0" encoding="utf-8"?>
<!-- Generator: Adobe Illustrator 16.0.0, SVG Export Plug-In . SVG Version: 6.00 Build 0)  -->
<!DOCTYPE svg PUBLIC "-//W3C//DTD SVG 1.0//EN" "http://www.w3.org/TR/2001/REC-SVG-20010904/DTD/svg10.dtd">
<svg version="1.0" id="Layer_1" xmlns="http://www.w3.org/2000/svg" xmlns:xlink="http://www.w3.org/1999/xlink" x="0px" y="0px"
	 width="310px" height="159px" viewBox="0 0 310 159" enable-background="new 0 0 310 159" xml:space="preserve">
<path fill-rule="evenodd" clip-rule="evenodd" fill="#508694" d="M201.076,92.079c-0.115-0.46-0.14-0.983-0.366-1.397
	c-15.024-27.426-30.017-54.871-45.247-82.184c-0.782-1.403-3.789-2.614-5.473-2.313c-26.145,4.689-52.246,9.624-78.344,14.57
	c-2.403,0.456-5.817,0.637-6.884,2.215c-5.142,7.604-13.518,13.78-11.731,24.773c0.954,5.865-3.374,8.967-7.887,12.241
	c0-9.855,0-19.711,0-29.843c-3.339,0.598-5.927,1.319-8.547,1.474c-4.443,0.262-5.794,2.313-5.474,6.701
	c0.63,8.633,0.967,17.306,0.922,25.959c-0.014,2.736-1.074,5.838-2.617,8.123c-4.174,6.181-8.865,12.013-13.275,17.882
	c4.736,7.405,13.435,12.819,24.466,15.529c19.354,4.755,38.265,1.903,57.095-3.103c3.313-0.88,5.331-2.635,6.921-5.672
	c13.503-25.782,27.15-51.489,40.769-77.212c0.83-1.567,1.785-3.068,3.016-5.173c1.235,2.258,2.142,3.818,2.96,5.425
	c10.568,20.743,21.591,41.274,31.453,62.349C186.825,90.96,191.381,95.29,201.076,92.079z M307.922,141.66
	c0.171-0.328,0.342-0.657,0.512-0.985c-9.166-5.315-18.23-10.813-27.515-15.913c-43.825-24.073-90.181-30.483-138.923-19.448
	c-22.293,5.048-44.011,12.421-67.216,13.539c-27.597,1.33-51.629-5.605-70.979-26.022c-0.95-1.003-1.575-2.313-2.352-3.481
	c-0.341,0.319-0.682,0.639-1.023,0.958c0.268,0.554,0.485,1.14,0.811,1.656c1.771,2.813,3.498,5.656,5.368,8.402
	c16.722,24.553,39.127,38.3,69.62,35.17c17.326-1.779,34.509-4.916,51.787-7.218c24.025-3.202,48.002-7.303,72.141-8.983
	c27.492-1.915,54.135,4.637,80.249,12.86C289.65,135.107,298.752,138.491,307.922,141.66z M300.518,145.962
	c0.1-0.339,0.199-0.678,0.299-1.017c-7.018-2.359-14-4.833-21.062-7.057c-20.485-6.452-41.223-11.756-62.818-12.668
	c-24.754-1.045-48.529,4.994-72.262,10.691c-24.094,5.784-48.336,6.782-72.856,4.514c-4.667-0.432-9.342-0.769-14.014-1.149
	c18.265,7.945,36.853,14.552,56.85,15.444c21.581,0.963,42.09-4.982,62.732-10.223c13.479-3.422,27.08-6.878,40.842-8.546
	c17.299-2.096,34.479,1.578,51.555,4.319C280.067,141.923,290.275,144.049,300.518,145.962z M203.587,79.152
	c4.761-8.709,9.167-16.77,13.897-25.42c1.475,2.015,2.49,3.29,3.387,4.643c8.181,12.336,16.904,24.36,24.304,37.149
	c4.727,8.172,11.792,11.349,20.463,14.159c-0.85-1.512-1.341-2.517-1.948-3.446c-11.639-17.827-23.285-35.647-34.941-53.463
	c-6.194-9.468-6.216-9.53-17.364-7.438c-7.421,1.393-14.8,3.016-22.846,4.67C193.686,59.976,198.459,69.222,203.587,79.152z
	 M136.438,89.702c2.404,0,4.198,0,5.992,0c1.916,0,3.832,0,5.678,0c1.059-12.844,2.089-12.736-11.1-12.024
	c-0.182,0.734-0.526,1.517-0.544,2.307C136.398,82.945,136.438,85.91,136.438,89.702z M136.708,73.521c4.089,0,7.795,0,11.468,0
	c0.84-11.754,2.441-12.08-11.468-10.623C136.708,66.275,136.708,69.699,136.708,73.521z M161.359,74.518c0-3.916,0-7.457,0-10.955
	c-10.237-0.969-11.371,0.491-8.632,10.955C155.421,74.518,158.191,74.518,161.359,74.518z M152.502,78.498c0,3.969,0,7.48,0,10.876
	c3.359,0,6.215,0,8.916,0c0-3.829,0-7.222,0-10.876C158.316,78.498,155.572,78.498,152.502,78.498z"/>
<path fill-rule="evenodd" clip-rule="evenodd" fill="#508694" d="M201.076,92.079c-9.695,3.211-14.251-1.119-18.244-9.654
	c-9.861-21.074-20.885-41.605-31.453-62.349c-0.818-1.606-1.725-3.167-2.96-5.425c-1.231,2.104-2.186,3.605-3.016,5.173
	c-13.618,25.723-27.265,51.43-40.769,77.212c-1.59,3.037-3.608,4.792-6.921,5.672c-18.83,5.006-37.74,7.857-57.095,3.103
	c-11.031-2.71-19.73-8.124-24.466-15.529c4.41-5.869,9.101-11.701,13.275-17.882c1.543-2.285,2.604-5.387,2.617-8.123
	c0.045-8.653-0.292-17.326-0.922-25.959c-0.32-4.388,1.031-6.439,5.474-6.701c2.621-0.154,5.208-0.876,8.547-1.474
	c0,10.132,0,19.987,0,29.843c4.514-3.274,8.841-6.376,7.887-12.241c-1.787-10.993,6.59-17.17,11.731-24.773
	c1.067-1.578,4.481-1.759,6.884-2.215c26.098-4.946,52.199-9.881,78.344-14.57c1.684-0.302,4.69,0.909,5.473,2.313
	c15.23,27.313,30.223,54.758,45.247,82.184C200.937,91.096,200.961,91.619,201.076,92.079z"/>
<path fill-rule="evenodd" clip-rule="evenodd" fill="#508694" d="M307.922,141.66c-9.17-3.169-18.271-6.553-27.521-9.466
	c-26.114-8.224-52.757-14.775-80.249-12.86c-24.139,1.681-48.115,5.781-72.141,8.983c-17.277,2.302-34.46,5.438-51.787,7.218
	c-30.493,3.13-52.898-10.617-69.62-35.17c-1.87-2.746-3.597-5.59-5.368-8.402c-0.326-0.517-0.543-1.103-0.811-1.656
	c0.341-0.319,0.682-0.639,1.023-0.958c0.776,1.168,1.401,2.479,2.352,3.481c19.35,20.417,43.382,27.353,70.979,26.022
	c23.206-1.118,44.923-8.491,67.216-13.539c48.742-11.035,95.098-4.625,138.923,19.448c9.284,5.1,18.349,10.598,27.515,15.913
	C308.264,141.003,308.093,141.332,307.922,141.66z"/>
<path fill-rule="evenodd" clip-rule="evenodd" fill="#508694" d="M300.518,145.962c-10.242-1.913-20.45-4.039-30.734-5.69
	c-17.076-2.741-34.256-6.415-51.555-4.319c-13.762,1.668-27.362,5.124-40.842,8.546c-20.643,5.24-41.151,11.186-62.732,10.223
	c-19.997-0.893-38.584-7.499-56.85-15.444c4.672,0.381,9.347,0.718,14.014,1.149c24.52,2.269,48.762,1.271,72.856-4.514
	c23.732-5.697,47.508-11.736,72.262-10.691c21.596,0.912,42.333,6.216,62.818,12.668c7.062,2.224,14.044,4.697,21.062,7.057
	C300.717,145.284,300.617,145.623,300.518,145.962z"/>
<path fill-rule="evenodd" clip-rule="evenodd" fill="#508694" d="M203.587,79.152c-5.128-9.931-9.901-19.177-15.049-29.146
	c8.046-1.654,15.425-3.277,22.846-4.67c11.148-2.093,11.17-2.03,17.364,7.438c11.656,17.815,23.303,35.636,34.941,53.463
	c0.607,0.93,1.099,1.935,1.948,3.446c-8.671-2.811-15.736-5.987-20.463-14.159c-7.399-12.789-16.123-24.813-24.304-37.149
	c-0.896-1.353-1.912-2.628-3.387-4.643C212.754,62.383,208.348,70.443,203.587,79.152z"/>
<path fill-rule="evenodd" clip-rule="evenodd" fill="#508694" d="M136.438,89.702c0-3.792-0.04-6.757,0.026-9.718
	c0.018-0.79,0.362-1.572,0.544-2.307c13.189-0.712,12.159-0.819,11.1,12.024c-1.846,0-3.762,0-5.678,0
	C140.637,89.702,138.843,89.702,136.438,89.702z"/>
<path fill-rule="evenodd" clip-rule="evenodd" fill="#508694" d="M136.708,73.521c0-3.822,0-7.246,0-10.623
	c13.91-1.457,12.308-1.131,11.468,10.623C144.503,73.521,140.797,73.521,136.708,73.521z"/>
<path fill-rule="evenodd" clip-rule="evenodd" fill="#508694" d="M161.359,74.518c-3.168,0-5.938,0-8.632,0
	c-2.739-10.464-1.605-11.924,8.632-10.955C161.359,67.061,161.359,70.602,161.359,74.518z"/>
<path fill-rule="evenodd" clip-rule="evenodd" fill="#508694" d="M152.502,78.498c3.07,0,5.814,0,8.916,0c0,3.654,0,7.047,0,10.876
	c-2.7,0-5.557,0-8.916,0C152.502,85.979,152.502,82.467,152.502,78.498z"/>
</svg>
